<?xml version="1.0" standalone="no"?>
<!DOCTYPE svg PUBLIC "-//W3C//DTD SVG 20010904//EN"
 "http://www.w3.org/TR/2001/REC-SVG-20010904/DTD/svg10.dtd">
<svg version="1.0" xmlns="http://www.w3.org/2000/svg"
 width="1280.000000pt" height="768.000000pt" viewBox="0 0 1280.000000 768.000000"
 preserveAspectRatio="xMidYMid meet">

<g transform="translate(0.000000,768.000000) scale(0.100000,-0.100000)"
fill="#000000" stroke="none">
<path d="M0 7382 l0 -297 1638 -983 1637 -982 491 2 491 3 -2129 1277 -2128
1277 0 -297z"/>
<path d="M3303 6595 c995 -597 1811 -1085 1813 -1085 2 0 4 488 4 1085 l0
1085 -1812 0 -1813 0 1808 -1085z"/>
<path d="M5630 6145 l0 -1535 -2815 0 -2815 0 0 -770 0 -770 2815 0 2815 0 0
-1535 0 -1535 770 0 770 0 0 1535 0 1535 2815 0 2815 0 0 770 0 770 -2815 0
-2815 0 0 1535 0 1535 -770 0 -770 0 0 -1535z"/>
<path d="M7680 6595 c0 -597 2 -1085 4 -1085 2 0 818 488 1813 1085 l1808
1085 -1812 0 -1813 0 0 -1085z"/>
<path d="M9743 6442 l-2062 -1237 -1 -42 0 -43 426 0 426 0 2111 1267 c1162
696 2121 1272 2132 1280 16 11 -59 13 -475 13 l-495 -1 -2062 -1237z"/>
<path d="M0 5951 l0 -831 1382 0 c772 0 1378 4 1373 9 -8 6 -2707 1626 -2747
1648 -5 2 -8 -370 -8 -826z"/>
<path d="M11416 5952 l-1379 -827 1378 -3 c758 -1 1380 -1 1382 1 2 2 2 376 1
830 l-3 827 -1379 -828z"/>
<path d="M0 1729 c0 -456 3 -828 7 -826 41 22 2740 1642 2747 1648 6 5 -600 9
-1372 9 l-1382 0 0 -831z"/>
<path d="M2137 1282 l-2127 -1277 491 -3 490 -2 2064 1237 2064 1238 1 43 0
42 -427 0 -428 -1 -2128 -1277z"/>
<path d="M8553 2549 c9 -6 969 -581 2132 -1279 l2115 -1269 0 297 0 297 -1638
983 -1637 982 -495 0 c-345 -1 -490 -4 -477 -11z"/>
<path d="M10046 2551 c7 -6 2706 -1626 2747 -1648 4 -2 7 370 7 826 l0 831
-1382 0 c-772 0 -1378 -4 -1372 -9z"/>
<path d="M3300 1084 l-1805 -1084 1813 0 1812 0 0 1085 c0 597 -3 1085 -7
1084 -5 0 -820 -489 -1813 -1085z"/>
<path d="M7680 1085 l0 -1085 1813 0 1812 0 -1808 1085 c-995 597 -1811 1085
-1813 1085 -2 0 -4 -488 -4 -1085z"/>
</g>
</svg>
