<?xml version="1.0" standalone="no"?>
<!DOCTYPE svg PUBLIC "-//W3C//DTD SVG 20010904//EN"
 "http://www.w3.org/TR/2001/REC-SVG-20010904/DTD/svg10.dtd">
<svg version="1.0" xmlns="http://www.w3.org/2000/svg"
 width="2560.000000pt" height="1707.000000pt" viewBox="0 0 2560.000000 1707.000000"
 preserveAspectRatio="xMidYMid meet">

<g transform="translate(0.000000,1707.000000) scale(0.100000,-0.100000)"
fill="#000000" stroke="none">
<path d="M0 14935 l0 -2135 12800 0 12800 0 0 2135 0 2135 -12800 0 -12800 0
0 -2135z"/>
<path d="M8480 11910 l0 -40 -41 0 -40 0 3 -47 c3 -48 3 -48 41 -51 l37 -3 0
-47 c0 -43 -3 -50 -31 -66 -37 -22 -66 -67 -74 -118 -9 -49 23 -119 67 -146
24 -15 27 -20 14 -25 -9 -4 -16 -2 -16 4 0 5 -11 14 -25 21 -32 14 -55 -4 -55
-44 0 -21 6 -31 20 -35 11 -3 20 -12 20 -19 0 -16 -16 -19 -25 -5 -9 16 -132
53 -203 61 -80 10 -189 -2 -267 -29 -62 -22 -161 -85 -217 -139 -33 -31 -40
-34 -60 -24 -15 7 -77 10 -178 8 -131 -2 -168 -6 -235 -27 -276 -85 -446 -306
-407 -529 11 -60 72 -203 93 -216 5 -3 -7 -20 -26 -38 -26 -24 -35 -42 -35
-65 0 -29 2 -31 39 -31 22 0 51 -4 65 -10 32 -12 86 -85 86 -117 0 -31 51 -83
82 -83 15 0 31 -12 48 -36 31 -47 103 -101 151 -116 33 -9 38 -14 33 -33 -7
-27 18 -55 48 -55 12 0 30 -7 39 -16 18 -16 18 -18 -2 -46 l-21 -29 42 -17
c45 -18 44 -14 24 -110 -4 -20 -2 -38 6 -47 15 -18 115 -49 260 -80 l105 -23
-492 -1 -493 -1 0 -595 c0 -327 -3 -595 -6 -595 -3 0 -40 9 -82 19 -87 22
-192 37 -334 46 l-98 7 0 319 0 319 -275 0 -275 0 0 -364 0 -363 -74 -27
c-154 -56 -295 -163 -311 -235 -9 -41 118 -355 158 -393 32 -30 139 -68 193
-68 l34 0 0 -162 0 -163 -78 -33 c-93 -39 -225 -121 -246 -154 -14 -22 -13
-37 12 -186 l28 -161 62 -58 c58 -54 62 -61 62 -102 l0 -44 21 19 c73 65 78
226 9 299 -20 21 -19 21 55 58 l75 37 0 -395 0 -395 275 0 275 0 0 528 0 528
30 18 c63 37 177 136 195 169 18 33 18 40 1 188 -9 84 -21 158 -27 165 -15 18
-87 50 -146 64 l-53 12 0 111 0 110 103 -6 c116 -7 239 -28 344 -59 l72 -21 4
-911 c3 -834 4 -916 20 -971 82 -277 222 -454 460 -580 214 -113 503 -209 770
-256 528 -92 1094 -6 1589 242 273 136 446 364 497 653 7 39 11 369 11 941 l0
882 73 21 c104 31 228 52 340 59 l97 6 0 -111 0 -112 -27 -6 c-66 -14 -126
-38 -149 -58 -22 -18 -26 -36 -39 -141 -23 -183 -21 -204 19 -251 18 -22 70
-66 115 -99 l81 -60 0 -527 0 -528 280 0 280 0 0 390 c0 261 3 390 10 390 6 0
37 -14 70 -30 l60 -30 -24 -38 c-55 -84 -55 -180 0 -265 25 -39 46 -43 37 -7
-7 27 38 99 81 130 19 14 39 34 44 45 5 11 19 86 32 167 19 114 21 152 13 171
-15 32 -110 94 -229 148 l-94 44 0 161 0 161 53 6 c75 9 141 34 172 65 33 34
155 329 155 376 0 76 -113 171 -289 243 l-91 37 -2 360 -3 361 -275 0 -275 0
-3 -317 -2 -316 -88 -7 c-145 -10 -263 -26 -341 -46 -41 -11 -76 -19 -78 -19
-1 0 -3 268 -3 595 l0 595 -502 1 c-441 1 -495 2 -438 14 123 24 275 66 298
81 20 13 23 22 18 47 -20 112 -22 102 24 116 l41 12 -21 34 c-19 30 -19 34 -5
49 9 9 27 16 39 16 30 0 50 24 44 53 -4 20 1 25 35 36 55 17 116 61 152 109
20 28 40 43 62 47 35 6 73 46 73 77 0 26 23 69 54 97 19 18 41 26 82 29 54 4
56 6 51 31 -2 14 -8 35 -12 45 -5 12 -5 17 2 13 5 -3 20 1 32 9 27 19 25 51
-4 70 -18 12 -24 11 -43 -2 -12 -8 -22 -24 -22 -34 0 -13 -5 -18 -15 -14 -12
5 -13 10 -4 20 26 32 79 159 89 214 44 245 -161 480 -475 545 -88 18 -318 19
-346 1 -13 -7 -27 -1 -64 32 -128 112 -252 164 -400 165 -99 0 -172 -14 -252
-49 -35 -15 -53 -19 -53 -11 0 7 9 18 20 25 22 14 27 51 8 70 -18 18 -46 15
-60 -7 -6 -10 -18 -17 -25 -14 -10 4 -5 11 16 24 35 21 71 85 71 126 0 43 -41
115 -77 138 -29 18 -32 25 -33 68 l0 47 40 0 40 0 0 50 0 50 -40 0 -40 0 0 40
0 40 -45 0 -45 0 0 -40z m-53 -546 c3 -8 -2 -23 -11 -32 -15 -15 -17 -15 -32
0 -21 21 -11 48 16 48 11 0 23 -7 27 -16z m250 0 c3 -8 -2 -23 -11 -32 -15
-15 -17 -15 -32 0 -21 21 -11 48 16 48 11 0 23 -7 27 -16z m-407 -114 c111
-37 110 -36 110 -161 0 -120 -5 -129 -70 -129 -62 0 -232 -41 -328 -79 -53
-21 -119 -43 -147 -50 -27 -7 -57 -14 -66 -17 -12 -3 -22 9 -38 45 -29 67 -29
169 0 228 41 85 147 156 274 183 62 14 195 4 265 -20z m841 2 c109 -38 194
-113 217 -191 19 -61 15 -146 -9 -202 -12 -27 -24 -49 -28 -49 -26 1 -146 36
-218 64 -111 43 -191 64 -307 79 l-91 13 -6 109 c-6 109 -5 110 20 132 26 23
119 58 176 67 58 9 191 -3 246 -22z m-566 -2 c4 -6 1 -18 -6 -26 -11 -13 -14
-13 -27 0 -8 8 -11 19 -8 25 9 14 33 14 41 1z m0 -120 c0 -16 -6 -26 -18 -28
-19 -4 -32 20 -23 44 9 25 41 13 41 -16z m-917 -8 c4 -28 -24 -41 -44 -20 -20
20 -7 50 20 46 13 -2 22 -12 24 -26z m1841 15 c15 -19 -10 -53 -33 -44 -16 6
-22 38 -9 50 10 11 30 8 42 -6z m-1891 -53 c30 -8 28 -20 -5 -36 -30 -14 -42
-53 -24 -71 16 -16 14 -42 -4 -57 -21 -18 -19 -35 9 -65 15 -16 22 -33 19 -45
-5 -18 -14 -20 -98 -20 -142 0 -289 -44 -436 -131 -36 -22 -68 -39 -72 -39 -3
0 -14 25 -23 56 -51 176 79 335 321 395 70 17 266 25 313 13z m2208 -14 c211
-54 328 -170 327 -325 0 -33 -8 -77 -17 -98 l-16 -38 -42 26 c-159 99 -329
155 -469 155 -80 0 -88 2 -94 21 -5 14 1 27 19 44 31 28 31 29 9 66 -14 24
-15 32 -4 52 18 34 11 60 -22 75 -15 7 -27 17 -27 22 0 14 28 18 146 19 81 1
132 -4 190 -19z m-1226 -40 c21 -39 -9 -78 -51 -65 -42 14 -29 85 16 85 14 0
29 -8 35 -20z m-960 -5 c17 -20 5 -45 -20 -45 -11 0 -23 7 -26 15 -6 15 11 45
26 45 4 0 13 -7 20 -15z m1890 0 c17 -20 5 -45 -20 -45 -11 0 -23 7 -26 15 -6
15 11 45 26 45 4 0 13 -7 20 -15z m-932 -111 c41 -28 18 -104 -31 -104 -53 0
-77 75 -35 104 12 9 27 16 33 16 6 0 21 -7 33 -16z m-959 -7 c15 -19 -10 -53
-33 -44 -16 6 -22 38 -9 50 10 11 30 8 42 -6z m1899 -15 c4 -28 -24 -41 -44
-20 -20 20 -7 50 20 46 13 -2 22 -12 24 -26z m-1868 -87 c17 -20 5 -45 -20
-45 -11 0 -23 7 -26 15 -6 15 11 45 26 45 4 0 13 -7 20 -15z m1830 0 c17 -20
5 -45 -20 -45 -11 0 -23 7 -26 15 -6 15 11 45 26 45 4 0 13 -7 20 -15z m-902
-21 c13 -9 22 -26 22 -41 l0 -27 -28 27 -29 28 -26 -33 -26 -33 -1 32 c0 31
28 63 55 63 6 0 21 -7 33 -16z m-860 -90 c4 -27 -26 -40 -46 -20 -21 20 -8 48
20 44 14 -2 24 -11 26 -24z m1706 10 c7 -19 -10 -44 -31 -44 -17 0 -27 24 -19
45 7 20 42 19 50 -1z m831 -314 c0 -16 -6 -26 -18 -28 -19 -4 -32 20 -23 44 9
25 41 13 41 -16z m-2055 -79 c14 -26 13 -44 -4 -66 -12 -16 -16 -17 -30 -6
-16 13 -22 71 -9 84 12 13 32 7 43 -12z m748 -22 c4 -43 -19 -69 -43 -49 -18
15 -19 43 -4 71 17 32 44 19 47 -22z m-1466 -116 c19 -17 25 -68 9 -77 -29
-18 -68 44 -49 77 11 21 17 21 40 0z m2176 -20 c3 -32 -21 -67 -42 -60 -18 6
-19 63 0 81 23 23 38 15 42 -21z m-1368 -278 c10 -12 10 -18 0 -30 -25 -30
-61 -7 -46 30 3 8 12 15 19 15 8 0 20 -7 27 -15z m567 -1 c3 -8 -2 -23 -11
-32 -15 -15 -17 -15 -32 0 -21 21 -11 48 16 48 11 0 23 -7 27 -16z m-1109 -80
c4 -26 -26 -40 -45 -21 -8 7 -11 21 -7 31 9 24 48 17 52 -10z m1652 11 c10
-12 10 -18 0 -30 -25 -30 -61 -7 -46 30 3 8 12 15 19 15 8 0 20 -7 27 -15z
m800 -1395 l0 -990 -544 0 -544 0 -7 68 c-13 135 -58 263 -125 362 -84 124
-231 222 -355 238 l-60 7 -3 653 -2 652 820 0 820 0 0 -990z m-4010 216 l0
-314 -82 -11 c-72 -11 -205 -40 -260 -57 -17 -5 -18 16 -18 345 l0 351 180 0
180 0 0 -314z m60 -1 c0 -308 0 -315 -20 -315 -20 0 -20 7 -20 315 0 308 0
315 20 315 20 0 20 -7 20 -315z m100 5 l0 -310 -40 0 -40 0 0 310 0 310 40 0
40 0 0 -310z m4780 -20 c0 -181 -3 -330 -7 -330 -5 0 -44 7 -88 14 -44 8 -124
17 -177 21 l-98 7 0 309 0 309 185 0 185 0 0 -330z m60 -9 c0 -334 0 -339 -20
-334 -19 5 -20 14 -20 339 0 327 0 334 20 334 20 0 20 -7 20 -339z m90 -11 l0
-350 -27 6 c-16 4 -31 9 -35 11 -5 2 -8 157 -8 344 l0 339 35 0 35 0 0 -350z
m-5030 -914 c0 -250 -2 -285 -16 -290 -9 -3 -18 -6 -20 -6 -2 0 -4 131 -4 290
0 283 0 290 20 290 20 0 20 -7 20 -284z m95 32 c-7 -269 -6 -261 -57 -289 -17
-9 -18 6 -18 266 l0 275 41 0 41 0 -7 -252z m4651 232 c65 -11 122 -24 126
-28 5 -5 7 -153 6 -330 l-3 -321 -115 57 c-63 31 -145 75 -182 97 l-68 39 0
253 0 253 59 0 c32 0 112 -9 177 -20z m-4806 -283 l0 -294 -157 -75 c-87 -42
-168 -79 -180 -83 l-23 -6 0 334 0 334 88 27 c88 27 208 53 250 55 l22 1 0
-293z m5000 -92 c0 -333 0 -336 -20 -325 -19 10 -20 21 -20 335 0 318 0 325
20 325 20 0 20 -7 20 -335z m90 -32 c0 -204 -4 -333 -10 -333 -5 0 -21 5 -35
12 l-25 11 0 333 0 332 35 -11 35 -10 0 -334z m-5470 292 c0 -27 -7 -29 -60
-18 l-33 6 34 18 c46 25 59 23 59 -6z m5550 5 c19 -11 28 -19 19 -20 -9 0 -31
-3 -48 -6 -28 -6 -31 -4 -31 20 0 31 12 32 60 6z m-5010 -1230 l0 -510 -40 0
-40 0 0 489 0 489 33 20 c17 11 35 21 40 21 4 1 7 -228 7 -509z m4575 420 c50
-26 116 -58 148 -71 l57 -23 0 -418 0 -418 -185 0 -185 0 0 511 0 511 38 -22
c20 -13 78 -44 127 -70z m-4675 -450 c0 -473 0 -480 -20 -480 -20 0 -20 7 -20
474 0 477 0 482 33 485 4 1 7 -215 7 -479z m-60 -15 l0 -465 -180 0 -180 0 0
388 0 389 73 28 c39 16 119 50 177 76 58 27 106 48 108 49 1 0 2 -209 2 -465z
m5000 -60 c0 -398 0 -405 -20 -405 -20 0 -20 7 -20 415 0 413 0 416 20 405 19
-10 20 -21 20 -415z m73 378 c16 -5 17 -32 17 -394 l0 -389 -35 0 -35 0 0 401
c0 378 1 401 18 394 9 -4 25 -10 35 -12z m-2625 -1056 c86 -170 209 -296 374
-382 129 -67 215 -88 375 -89 72 -1 131 -2 130 -3 -10 -9 -269 -91 -359 -113
-231 -57 -309 -65 -603 -65 -291 0 -382 11 -620 71 -93 23 -294 87 -322 103
-7 4 31 5 85 3 321 -12 624 173 772 472 27 54 57 132 66 173 l18 74 21 -80
c12 -45 40 -118 63 -164z"/>
<path d="M9445 9260 c-3 -5 -1 -11 5 -15 5 -3 10 -33 10 -66 0 -52 -2 -59 -20
-59 -11 0 -27 -11 -36 -25 -13 -20 -24 -25 -59 -25 -54 0 -79 -21 -64 -53 5
-12 12 -30 15 -39 4 -10 16 -19 28 -20 41 -2 45 -3 52 -11 10 -10 -60 -9 -88
2 -13 5 -43 25 -67 45 -44 37 -77 44 -111 26 -18 -9 -14 -15 40 -65 59 -54 61
-55 122 -56 35 0 72 -5 83 -10 l20 -9 -20 2 c-11 2 -26 -1 -32 -5 -8 -5 -13
-3 -13 4 0 7 -8 5 -20 -6 -11 -10 -20 -23 -20 -29 0 -6 9 -17 20 -24 25 -15
26 -38 2 -51 -10 -5 -48 -11 -84 -12 -68 -2 -86 6 -215 96 -33 23 -39 60 -17
100 23 42 11 100 -25 124 -24 15 -24 15 -18 -10 5 -19 1 -31 -13 -44 -12 -11
-20 -31 -20 -49 l0 -31 -18 22 c-11 15 -32 25 -62 29 -38 5 -48 3 -64 -15 -19
-21 -19 -21 8 -21 16 0 29 -7 33 -17 3 -10 17 -28 32 -40 25 -22 25 -23 5 -23
-29 0 -84 -52 -84 -80 0 -14 4 -19 13 -13 6 4 37 8 68 9 52 1 57 -1 76 -31
l21 -31 -32 -13 c-26 -12 -28 -14 -11 -18 11 -2 32 -9 48 -15 24 -9 26 -12 11
-23 -20 -14 -14 -19 44 -35 24 -6 61 -27 83 -47 l39 -36 -52 -38 c-60 -45
-110 -52 -128 -19 -19 36 -120 20 -120 -20 0 -4 9 -6 19 -3 13 3 23 -2 30 -15
6 -12 21 -24 33 -28 19 -6 17 -8 -18 -20 -40 -14 -74 -46 -74 -70 0 -12 4 -12
20 -4 14 7 26 8 39 0 11 -5 26 -8 33 -5 9 4 14 -5 15 -29 2 -45 19 -76 42 -76
14 0 17 6 14 23 -3 14 2 29 11 36 9 8 16 27 16 43 0 29 3 32 53 42 22 5 27 3
27 -14 0 -27 9 -25 47 12 25 24 33 28 33 15 0 -25 15 -21 28 8 6 13 25 31 41
40 30 15 31 15 44 -17 22 -51 63 -94 125 -130 l57 -33 -84 -5 c-78 -5 -85 -8
-107 -35 -19 -24 -24 -42 -24 -92 0 -41 5 -65 13 -70 8 -4 17 -17 21 -28 7
-19 8 -19 22 5 l14 25 -2 -35 c-3 -32 -6 -35 -36 -38 -38 -4 -69 18 -74 52 -4
28 -66 45 -103 28 -28 -13 -34 -30 -8 -28 9 0 22 -9 28 -20 6 -12 17 -30 25
-40 14 -16 13 -17 -17 -11 -19 4 -33 2 -33 -3 0 -6 -9 -10 -20 -10 -22 0 -40
-28 -40 -61 0 -18 3 -20 12 -11 15 15 51 15 66 0 9 -9 15 -9 24 0 21 21 26 13
20 -33 -3 -35 0 -50 13 -65 23 -25 38 -26 31 -2 -4 12 1 26 14 37 11 10 20 24
20 31 0 22 16 24 96 13 107 -15 112 -9 94 105 -16 103 -12 116 35 116 35 0 36
-1 30 -33 -9 -47 11 -111 46 -152 35 -40 54 -45 46 -14 -6 21 -5 21 19 -2 l24
-22 0 22 c0 30 22 22 34 -12 13 -36 -4 -52 -49 -49 -19 2 -35 -2 -35 -8 0 -5
-11 -10 -25 -10 -20 0 -29 -8 -40 -32 -15 -36 -12 -49 7 -30 15 15 55 16 63 2
4 -6 16 -8 28 -5 19 5 20 5 4 -5 -9 -6 -24 -25 -33 -42 -13 -25 -13 -35 -4
-59 14 -33 30 -38 30 -9 0 13 9 22 25 26 17 4 25 13 26 28 0 13 2 16 6 6 2 -8
10 -26 16 -40 26 -58 69 -83 59 -35 -3 16 2 33 12 44 15 16 15 21 1 54 -13 31
-13 41 0 84 8 26 24 62 35 78 11 17 20 38 20 48 0 23 -29 67 -44 67 -7 0 -23
11 -36 25 -19 21 -22 32 -18 79 5 64 25 91 71 100 53 10 97 43 117 89 29 64
25 124 -17 245 -28 81 -37 123 -38 173 0 65 1 67 41 106 23 22 44 53 48 68 4
15 21 48 37 72 l30 43 -26 0 -25 0 26 39 c14 22 28 59 31 82 l6 42 -52 -42
c-29 -22 -56 -41 -61 -41 -4 0 -14 15 -21 33 -12 31 -12 31 -16 7 -2 -14 -17
-63 -32 -110 -24 -70 -30 -109 -35 -225 -6 -129 -5 -147 18 -235 31 -114 34
-198 9 -229 -23 -27 -70 -40 -109 -29 -61 16 -151 150 -168 248 l-6 35 20 -24
c26 -30 33 -13 28 64 -3 61 2 68 22 30 7 -14 17 -25 21 -25 11 0 20 65 13 86
-6 16 -3 15 19 -5 l27 -24 0 30 c0 17 -9 42 -21 57 -11 14 -24 39 -29 56 -8
28 -7 29 12 19 26 -14 31 -8 18 25 -5 15 -10 52 -10 82 0 50 2 55 28 65 15 6
46 9 70 6 35 -4 42 -2 38 10 -3 8 -6 17 -6 19 0 2 -9 4 -19 4 -11 0 -22 6 -25
13 -3 8 -9 6 -21 -8 -14 -17 -17 -18 -25 -5 -5 8 -9 20 -9 25 0 6 3 5 5 -2 10
-24 34 -1 34 33 0 30 -3 34 -22 32 -33 -5 -50 -18 -44 -34 7 -18 -2 -18 -20 0
-20 20 -17 35 5 29 16 -4 19 1 19 32 0 35 -1 36 -34 31 -31 -5 -34 -4 -34 18
0 14 -4 27 -10 31 -17 11 -58 -6 -63 -27 -4 -13 -10 -17 -18 -12 -10 6 -10 9
-1 12 14 4 16 42 2 42 -5 0 -10 6 -10 14 0 16 -27 29 -35 16z m141 -125 c14
-13 14 -15 0 -15 -9 0 -16 5 -16 11 0 5 -4 8 -9 4 -5 -3 -12 -1 -16 5 -10 16
25 12 41 -5z"/>
<path d="M8527 5733 c-12 -12 -30 -16 -57 -14 -40 3 -49 -6 -29 -26 7 -7 2
-15 -16 -27 -33 -21 -64 -89 -65 -136 0 -70 61 -143 133 -157 22 -5 27 -11 27
-35 l0 -30 -32 22 c-18 12 -60 35 -93 51 -54 26 -70 29 -160 29 l-99 0 49 -50
c83 -85 186 -121 288 -102 26 5 47 8 47 7 0 -1 -7 -21 -15 -44 -15 -44 -11
-48 32 -29 34 15 43 26 43 57 l0 23 99 -7 c118 -8 150 0 235 59 l58 41 -32 13
c-49 20 -151 26 -207 13 -28 -7 -72 -29 -101 -51 -44 -34 -52 -37 -52 -21 0
11 -2 26 -5 33 -4 9 8 17 38 25 30 8 56 25 80 53 32 35 37 46 37 91 0 64 -23
113 -65 139 -26 16 -31 25 -27 45 3 20 0 25 -16 25 -12 0 -24 -5 -27 -11 -5
-6 -13 -3 -22 10 -17 25 -24 26 -46 4z m38 -34 c5 -15 10 -18 18 -10 16 16 27
13 27 -8 0 -11 12 -24 31 -31 62 -26 90 -126 52 -190 -18 -31 -80 -70 -112
-70 -20 0 -20 1 4 36 39 57 31 156 -17 223 -15 21 -19 22 -33 11 -61 -50 -69
-190 -15 -248 l21 -22 -21 0 c-35 0 -100 39 -121 73 -39 62 -10 167 52 190 21
8 27 16 23 29 -6 21 6 24 24 6 10 -10 16 -7 28 10 19 28 31 28 39 1z"/>
<path d="M8030 11440 c-21 -40 12 -80 53 -64 40 15 26 84 -18 84 -14 0 -29 -8
-35 -20z m60 -26 c0 -19 -5 -24 -25 -24 -20 0 -25 5 -25 24 0 13 6 26 13 29
22 7 37 -4 37 -29z"/>
<path d="M8146 11444 c-19 -18 -20 -28 -6 -55 19 -35 80 -18 80 22 0 21 -26
49 -45 49 -7 0 -21 -7 -29 -16z m57 -18 c8 -21 -16 -48 -36 -40 -17 6 -23 35
-10 47 11 12 41 7 46 -7z"/>
<path d="M8842 11448 c-17 -17 -15 -53 3 -68 20 -17 62 -5 70 21 13 40 -44 76
-73 47z m56 -34 c4 -26 -26 -40 -45 -21 -8 7 -11 21 -7 31 9 24 48 17 52 -10z"/>
<path d="M8952 11448 c-17 -17 -15 -53 3 -68 20 -17 62 -5 70 20 14 44 -41 80
-73 48z m56 -32 c-4 -25 -43 -34 -51 -12 -8 20 19 47 39 39 8 -3 14 -15 12
-27z"/>
<path d="M7922 11428 c-16 -16 -15 -53 3 -68 19 -16 45 -10 61 15 26 39 -31
86 -64 53z m55 -24 c3 -8 -2 -23 -11 -32 -15 -15 -17 -15 -32 0 -21 21 -11 48
16 48 11 0 23 -7 27 -16z"/>
<path d="M8268 11429 c-21 -12 -24 -49 -6 -67 19 -19 56 -14 68 9 9 16 8 26
-5 45 -17 26 -30 29 -57 13z m50 -35 c4 -26 -26 -40 -45 -21 -8 7 -11 21 -7
31 9 24 48 17 52 -10z"/>
<path d="M8725 11420 c-37 -41 24 -97 63 -58 17 17 15 44 -4 62 -21 21 -37 20
-59 -4z m59 -16 c7 -19 -10 -44 -31 -44 -17 0 -27 24 -19 45 7 20 42 19 50 -1z"/>
<path d="M9066 11421 c-23 -25 -13 -59 20 -67 30 -8 54 11 54 40 0 45 -44 61
-74 27z m58 -18 c10 -26 -23 -48 -42 -29 -8 8 -12 22 -9 30 8 21 43 20 51 -1z"/>
<path d="M7812 11388 c-17 -17 -15 -44 4 -62 22 -23 41 -20 59 8 13 19 14 29
5 45 -12 23 -49 28 -68 9z m53 -28 c0 -18 -6 -26 -21 -28 -26 -4 -40 24 -23
45 18 21 44 11 44 -17z"/>
<path d="M9168 11375 c-10 -22 -9 -29 9 -46 26 -26 60 -18 69 17 13 52 -56 77
-78 29z m61 -4 c8 -14 7 -22 -4 -31 -19 -16 -45 -6 -45 18 0 36 33 45 49 13z"/>
<path d="M7710 11325 c-17 -20 -4 -62 21 -70 15 -5 28 -1 42 14 18 17 19 24 9
46 -13 29 -52 34 -72 10z m58 -23 c4 -28 -24 -40 -45 -19 -14 13 -14 19 -3 32
18 22 44 15 48 -13z"/>
<path d="M9272 11328 c-18 -18 -15 -42 9 -64 22 -20 43 -13 63 19 23 36 -41
76 -72 45z m53 -28 c0 -16 -6 -26 -18 -28 -19 -4 -32 20 -23 44 9 25 41 13 41
-16z"/>
<path d="M7406 11261 c-22 -24 -18 -49 9 -67 18 -12 24 -11 43 2 28 19 28 49
0 68 -28 20 -31 20 -52 -3z m49 -31 c0 -16 -6 -26 -18 -28 -19 -4 -32 20 -23
44 9 25 41 13 41 -16z"/>
<path d="M9587 11262 c-23 -25 -21 -48 5 -66 44 -31 91 32 48 66 -28 22 -33
22 -53 0z m51 -30 c4 -28 -24 -40 -45 -19 -14 13 -14 19 -3 32 18 22 44 15 48
-13z"/>
<path d="M7292 11258 c-17 -17 -15 -53 3 -68 20 -17 61 -5 68 19 11 42 -42 78
-71 49z m55 -24 c3 -8 -2 -23 -11 -32 -15 -15 -17 -15 -32 0 -21 21 -11 48 16
48 11 0 23 -7 27 -16z"/>
<path d="M7508 11245 c-9 -21 -8 -28 7 -45 31 -34 75 -20 75 25 0 48 -62 63
-82 20z m61 1 c17 -20 2 -48 -23 -44 -24 3 -34 37 -14 49 18 12 24 11 37 -5z"/>
<path d="M7630 11256 c-28 -35 11 -93 48 -70 35 22 22 84 -18 84 -10 0 -23 -7
-30 -14z m50 -11 c17 -20 5 -45 -20 -45 -11 0 -23 7 -26 15 -6 15 11 45 26 45
4 0 13 -7 20 -15z"/>
<path d="M9360 11256 c-28 -35 11 -93 48 -70 35 22 22 84 -18 84 -10 0 -23 -7
-30 -14z m50 -11 c17 -20 5 -45 -20 -45 -11 0 -23 7 -26 15 -6 15 11 45 26 45
4 0 13 -7 20 -15z"/>
<path d="M9472 11258 c-27 -27 -7 -78 29 -78 23 0 49 38 41 59 -11 31 -48 41
-70 19z m48 -13 c17 -20 5 -45 -20 -45 -11 0 -23 7 -26 15 -6 15 11 45 26 45
4 0 13 -7 20 -15z"/>
<path d="M9696 11251 c-23 -25 -13 -59 20 -67 30 -8 54 11 54 40 0 45 -44 61
-74 27z m58 -18 c8 -20 -19 -44 -40 -36 -14 5 -19 35 -7 46 12 13 41 7 47 -10z"/>
<path d="M7175 11234 c-21 -21 -16 -53 12 -71 19 -13 24 -12 42 6 26 26 26 36
1 61 -24 24 -34 25 -55 4z m53 -32 c4 -28 -24 -41 -44 -20 -20 20 -7 50 20 46
13 -2 22 -12 24 -26z"/>
<path d="M9820 11230 c-25 -25 -25 -35 1 -61 18 -18 23 -19 42 -6 28 18 33 50
12 71 -21 21 -31 20 -55 -4z m50 -15 c10 -12 10 -18 0 -30 -25 -30 -61 -7 -46
30 3 8 12 15 19 15 8 0 20 -7 27 -15z"/>
<path d="M7062 11188 c-18 -18 -15 -42 9 -64 22 -20 43 -13 63 19 23 36 -41
76 -72 45z m53 -28 c0 -16 -6 -26 -18 -28 -19 -4 -32 20 -23 44 9 25 41 13 41
-16z"/>
<path d="M9920 11185 c-17 -20 -5 -62 21 -70 24 -8 59 19 59 45 0 37 -55 55
-80 25z m55 -25 c0 -16 -6 -26 -18 -28 -19 -4 -32 20 -23 44 9 25 41 13 41
-16z"/>
<path d="M6962 11128 c-19 -19 -14 -56 8 -68 38 -21 80 22 60 61 -12 21 -50
25 -68 7z m53 -28 c0 -18 -6 -26 -21 -28 -26 -4 -40 24 -23 45 18 21 44 11 44
-17z"/>
<path d="M10020 11121 c-18 -35 18 -79 54 -65 22 8 31 51 16 69 -18 21 -57 19
-70 -4z m60 -6 c10 -12 10 -18 0 -30 -25 -30 -61 -7 -46 30 3 8 12 15 19 15 8
0 20 -7 27 -15z"/>
<path d="M6870 11055 c-7 -8 -10 -25 -6 -39 11 -45 71 -45 82 0 8 30 -11 54
-41 54 -12 0 -28 -7 -35 -15z m60 -31 c0 -19 -5 -24 -25 -24 -20 0 -25 5 -25
24 0 13 6 26 13 29 22 7 37 -4 37 -29z"/>
<path d="M10110 11055 c-16 -20 -5 -62 19 -70 42 -13 72 25 51 65 -13 24 -52
27 -70 5z m48 -4 c19 -12 11 -45 -12 -49 -24 -5 -37 17 -25 40 11 20 18 22 37
9z"/>
<path d="M6797 10974 c-15 -15 -7 -63 13 -74 33 -17 62 4 58 43 -3 27 -7 32
-33 35 -17 2 -34 0 -38 -4z m58 -34 c0 -18 -6 -26 -23 -28 -27 -4 -40 22 -22
44 19 22 45 13 45 -16z"/>
<path d="M10180 10961 c-20 -39 22 -82 60 -61 22 12 27 49 8 68 -18 18 -56 14
-68 -7z m59 -5 c15 -18 3 -46 -20 -46 -22 0 -34 22 -25 45 7 19 30 19 45 1z"/>
<path d="M6746 10864 c-30 -30 -13 -74 29 -74 42 0 59 44 29 74 -8 9 -22 16
-29 16 -7 0 -21 -7 -29 -16z m49 -34 c0 -16 -6 -26 -18 -28 -19 -4 -32 20 -23
44 9 25 41 13 41 -16z"/>
<path d="M10246 10864 c-19 -18 -21 -45 -4 -62 39 -39 100 17 63 58 -22 24
-38 25 -59 4z m52 -32 c4 -29 -26 -42 -44 -18 -17 24 -6 48 20 44 13 -2 22
-12 24 -26z"/>
<path d="M6724 10752 c-19 -13 -23 -39 -8 -61 26 -36 74 -21 74 24 0 36 -37
57 -66 37z m54 -40 c-4 -22 -46 -28 -54 -8 -4 9 -1 23 6 31 16 19 53 1 48 -23z"/>
<path d="M10272 10748 c-16 -16 -15 -53 3 -68 19 -16 45 -10 61 15 26 39 -31
86 -64 53z m48 -13 c17 -20 5 -45 -20 -45 -11 0 -23 7 -26 15 -6 15 11 45 26
45 4 0 13 -7 20 -15z"/>
<path d="M6722 10628 c-27 -27 -7 -78 30 -78 27 0 52 44 38 69 -12 23 -49 28
-68 9z m46 -7 c20 -12 10 -46 -14 -49 -25 -4 -40 24 -23 44 13 16 19 17 37 5z"/>
<path d="M10258 10615 c-10 -22 -9 -29 10 -47 18 -19 25 -20 47 -10 16 8 25
20 25 35 0 50 -62 66 -82 22z m61 -3 c12 -23 -1 -45 -25 -40 -23 4 -31 37 -12
49 19 13 26 11 37 -9z"/>
<path d="M6750 10510 c-21 -40 12 -80 54 -64 22 8 31 50 16 69 -18 22 -57 19
-70 -5z m60 -26 c0 -19 -5 -24 -25 -24 -20 0 -25 5 -25 24 0 13 6 26 13 29 22
7 37 -4 37 -29z"/>
<path d="M10232 10518 c-17 -17 -15 -53 3 -68 20 -17 62 -5 70 20 14 44 -41
80 -73 48z m56 -32 c-4 -25 -43 -34 -51 -12 -8 20 19 47 39 39 8 -3 14 -15 12
-27z"/>
<path d="M6812 10424 c-12 -8 -22 -24 -22 -34 0 -10 10 -26 22 -34 19 -13 25
-14 43 -2 11 7 20 24 20 36 0 12 -9 29 -20 36 -18 12 -24 11 -43 -2z m43 -34
c0 -29 -32 -41 -41 -16 -9 24 4 48 23 44 12 -2 18 -12 18 -28z"/>
<path d="M6043 9975 c-16 -18 -16 -32 -1 -37 9 -3 8 -9 -5 -22 -19 -19 -22
-42 -7 -51 19 -12 -1 -31 -28 -28 -15 3 -47 -1 -72 -7 -25 -7 -62 -12 -82 -11
-24 1 -41 -4 -50 -16 -7 -10 -30 -26 -50 -37 -40 -20 -63 -62 -56 -101 3 -14
2 -28 -3 -30 -8 -5 17 -31 95 -104 25 -23 36 -40 33 -53 -3 -11 0 -18 10 -18
10 0 12 -6 8 -19 -4 -13 1 -24 17 -35 21 -15 17 -16 -70 -16 l-92 0 0 -110 0
-110 30 0 c23 0 30 -5 30 -19 0 -10 11 -26 25 -35 14 -9 25 -25 25 -35 0 -10
-11 -26 -25 -35 -27 -18 -32 -45 -13 -64 9 -9 90 -12 303 -12 300 0 315 2 315
40 0 9 -11 26 -25 38 -14 12 -25 29 -25 37 0 8 11 22 25 31 14 9 25 25 25 35
0 14 7 19 30 19 l30 0 0 110 0 110 -87 0 c-83 0 -86 1 -65 16 16 11 21 22 17
35 -4 11 -2 19 4 19 6 0 11 8 11 18 0 11 29 48 64 83 35 35 62 68 59 73 -3 5
-7 24 -8 42 -2 40 -28 81 -60 96 -14 6 -27 20 -31 31 -5 16 -12 18 -46 14 -23
-3 -57 1 -80 9 -22 8 -55 14 -73 14 -39 0 -47 7 -33 30 9 14 8 24 -5 44 -10
14 -13 26 -7 26 15 0 12 19 -4 36 -18 18 -37 17 -53 -1z m-43 -469 c0 -3 -4
-8 -10 -11 -5 -3 -10 -1 -10 4 0 6 5 11 10 11 6 0 10 -2 10 -4z m160 -6 c0 -5
-2 -10 -4 -10 -3 0 -8 5 -11 10 -3 6 -1 10 4 10 6 0 11 -4 11 -10z"/>
<path d="M10982 9934 c-7 -8 -12 -22 -11 -32 1 -9 0 -24 -4 -32 -3 -8 -8 -37
-11 -64 -3 -27 -7 -50 -9 -52 -1 -1 -33 -4 -70 -6 -44 -3 -72 -10 -77 -19 -5
-7 -13 -10 -17 -5 -4 5 -2 11 5 13 24 9 -17 44 -44 37 -19 -5 -22 -3 -17 15 4
14 1 21 -9 21 -22 0 -29 -12 -16 -27 6 -7 8 -16 4 -20 -3 -4 -13 2 -20 13 -12
16 -17 17 -28 6 -11 -11 -10 -15 3 -26 22 -15 3 -43 -26 -39 -15 1 -16 1 -2
-3 9 -3 17 -11 17 -17 0 -19 -18 -42 -27 -34 -4 5 -1 13 7 18 13 9 13 10 1 7
-25 -7 -24 -27 1 -37 17 -7 18 -10 6 -10 -10 -1 -18 -4 -18 -8 1 -10 47 -63
55 -63 14 0 75 -74 75 -91 0 -11 5 -19 11 -19 6 0 8 -8 4 -19 -4 -13 1 -24 17
-35 21 -15 17 -16 -70 -16 l-92 0 0 -110 0 -110 35 0 c26 0 33 -4 29 -14 -3
-9 5 -21 20 -31 33 -22 33 -55 1 -85 -29 -28 -30 -33 -9 -54 13 -14 55 -16
300 -16 178 0 293 4 305 10 26 14 24 36 -6 62 -14 12 -25 32 -25 44 0 12 11
29 25 38 14 9 25 23 25 31 0 10 10 15 30 15 l30 0 0 110 0 110 -87 0 c-83 0
-85 1 -70 18 10 10 17 26 17 35 0 9 5 17 11 17 5 0 8 4 4 9 -9 16 14 54 48 80
18 13 43 37 56 54 20 24 22 31 10 38 -11 7 -11 9 4 9 10 0 17 8 17 20 0 13 -7
20 -20 20 -11 0 -20 5 -20 11 0 5 -4 8 -8 5 -11 -7 -113 28 -115 39 -1 6 13
11 30 13 24 2 39 -3 58 -22 14 -14 25 -22 25 -18 0 5 -5 13 -12 20 -9 9 -8 12
5 12 11 0 17 8 17 21 0 16 -5 20 -19 16 -12 -3 -22 1 -25 9 -8 20 -36 17 -35
-3 0 -11 3 -13 6 -5 2 6 9 12 15 12 6 0 6 -6 -2 -15 -19 -23 -39 -19 -33 6 5
19 3 21 -28 14 -45 -10 -49 -13 -42 -33 6 -15 3 -14 -16 3 l-22 19 22 8 c17 7
19 11 9 23 -14 17 -30 11 -30 -11 0 -8 -7 -14 -16 -14 -13 0 -14 3 -4 15 14
17 5 35 -17 35 -10 0 -14 -6 -10 -20 3 -12 0 -20 -8 -20 -8 0 -11 8 -8 20 4
15 0 20 -13 20 -16 0 -16 -2 -4 -10 8 -5 11 -12 7 -16 -4 -4 -8 -5 -10 -3 -1
2 -12 19 -25 37 -12 17 -18 32 -12 32 15 0 12 29 -4 46 -18 18 -27 17 -44 -2z
m148 -104 c0 -5 -4 -10 -10 -10 -5 0 -10 5 -10 10 0 6 5 10 10 10 6 0 10 -4
10 -10z m45 -10 c3 -5 1 -10 -4 -10 -6 0 -11 5 -11 10 0 6 2 10 4 10 3 0 8 -4
11 -10z m-105 -10 c12 -8 11 -10 -7 -10 -13 0 -23 5 -23 10 0 13 11 13 30 0z
m-350 -20 c0 -5 -2 -10 -4 -10 -3 0 -8 5 -11 10 -3 6 -1 10 4 10 6 0 11 -4 11
-10z m444 -20 c11 -11 18 -21 15 -23 -2 -1 -32 -1 -66 1 -53 3 -63 7 -63 22 0
35 80 35 114 0z m86 24 c0 -4 -12 -17 -27 -30 -16 -13 -22 -24 -15 -24 6 0 12
-4 12 -10 0 -16 -17 -11 -25 7 -3 10 -1 19 5 21 8 3 7 8 -1 18 -7 9 -8 14 -1
14 6 0 12 -6 15 -12 3 -9 7 -7 12 5 7 16 25 24 25 11z m-567 -28 c4 -10 1 -13
-9 -9 -15 6 -19 23 -5 23 5 0 11 -7 14 -14z m630 0 c4 -10 1 -13 -8 -9 -8 3
-12 9 -9 14 7 12 11 11 17 -5z m27 4 c0 -5 -2 -10 -4 -10 -3 0 -8 5 -11 10 -3
6 -1 10 4 10 6 0 11 -4 11 -10z m-567 -24 c1 -5 -16 -15 -38 -22 -22 -8 -48
-18 -57 -24 -21 -12 -23 -2 -5 21 26 34 93 51 100 25z m607 -76 c0 -5 -4 -10
-10 -10 -5 0 -10 5 -10 10 0 6 5 10 10 10 6 0 10 -4 10 -10z m-450 -170 c0 -5
-2 -10 -4 -10 -3 0 -8 5 -11 10 -3 6 -1 10 4 10 6 0 11 -4 11 -10z m160 0 c0
-5 -2 -10 -4 -10 -3 0 -8 5 -11 10 -3 6 -1 10 4 10 6 0 11 -4 11 -10z"/>
<path d="M10864 9835 c-5 -11 -10 -13 -19 -5 -13 11 -25 4 -25 -17 0 -7 7 -13
16 -13 14 0 14 -3 4 -15 -11 -14 -14 -14 -24 0 -15 21 -68 24 -73 5 -4 -13 -3
-13 6 0 9 13 13 12 27 -8 9 -13 22 -21 29 -18 8 3 16 0 19 -7 3 -9 5 -9 5 0 2
21 60 45 94 39 18 -3 26 -3 19 0 -10 5 -10 9 -1 20 9 11 9 18 1 26 -13 13 -35
0 -28 -18 3 -8 -1 -14 -8 -14 -9 0 -12 7 -9 20 6 24 -24 29 -33 5z m26 -5 c0
-5 -2 -10 -4 -10 -3 0 -8 5 -11 10 -3 6 -1 10 4 10 6 0 11 -4 11 -10z m50 0
c0 -5 -4 -10 -10 -10 -5 0 -10 5 -10 10 0 6 5 10 10 10 6 0 10 -4 10 -10z
m-78 -15 c11 0 22 -15 10 -15 -19 0 -42 12 -42 22 0 5 6 6 13 1 6 -4 15 -8 19
-8z m-52 -35 c0 -5 -4 -10 -10 -10 -5 0 -10 5 -10 10 0 6 5 10 10 10 6 0 10
-4 10 -10z"/>
<path d="M10626 9742 c-3 -5 1 -9 9 -9 8 0 12 4 9 9 -3 4 -7 8 -9 8 -2 0 -6
-4 -9 -8z"/>
<path d="M11357 9744 c-14 -14 -7 -35 11 -32 9 2 17 10 17 17 0 16 -18 25 -28
15z m18 -14 c3 -5 1 -10 -4 -10 -6 0 -11 5 -11 10 0 6 2 10 4 10 3 0 8 -4 11
-10z"/>
<path d="M5762 6038 c-15 -15 -16 -44 -2 -53 33 -20 -15 -105 -60 -105 -19 0
-20 -6 -20 -105 0 -105 0 -106 -27 -116 -15 -5 -46 -13 -70 -16 l-43 -6 0
-223 0 -224 35 0 c19 0 65 12 102 28 93 37 172 37 268 -2 60 -25 79 -28 140
-23 43 3 89 14 120 28 72 34 169 32 252 -4 34 -15 78 -27 98 -27 l35 0 0 224
0 223 -43 6 c-24 3 -55 11 -70 16 -27 10 -27 11 -27 113 l0 103 -33 15 c-17 8
-38 27 -47 42 -12 23 -12 30 0 53 10 19 11 31 3 43 -9 15 -41 17 -304 20 -221
2 -298 -1 -307 -10z m336 -395 c-15 -2 -42 -2 -60 0 -18 2 -6 4 27 4 33 0 48
-2 33 -4z m-154 -80 c81 -33 162 -33 247 2 88 36 172 37 256 1 34 -14 76 -26
93 -26 28 0 30 -3 30 -35 0 -31 -3 -35 -25 -35 -14 0 -54 12 -88 27 -87 38
-177 38 -269 0 -89 -36 -156 -36 -245 0 -93 38 -183 38 -270 0 -34 -15 -74
-27 -88 -27 -22 0 -25 4 -25 35 0 33 2 35 33 35 17 0 52 10 77 21 94 43 173
44 274 2z m1 -174 c70 -33 181 -33 245 1 70 36 169 39 245 7 33 -14 77 -28 98
-32 34 -7 37 -10 37 -40 l0 -32 -42 8 c-24 4 -63 17 -88 28 -66 30 -161 28
-247 -5 -92 -36 -167 -36 -250 -1 -84 36 -179 37 -261 3 -31 -13 -72 -26 -89
-29 -32 -6 -33 -5 -33 27 0 32 3 35 38 41 20 3 62 17 92 31 72 32 179 29 255
-7z"/>
<path d="M10691 6032 c-6 -11 -5 -25 3 -41 7 -13 11 -34 8 -47 -5 -28 -46 -64
-73 -64 -17 0 -19 -9 -19 -105 0 -118 -1 -120 -85 -131 l-45 -7 0 -225 0 -225
48 6 c26 3 70 16 97 29 70 32 171 31 240 -1 31 -14 77 -25 120 -28 61 -5 78
-2 135 23 90 39 179 39 272 1 36 -15 80 -27 97 -27 35 0 33 -21 32 230 0 244
6 216 -46 224 -84 11 -85 13 -85 131 0 99 -1 105 -20 105 -29 0 -70 44 -70 75
0 14 5 34 12 44 9 15 9 23 -1 35 -12 14 -52 16 -312 16 -275 0 -299 -1 -308
-18z m337 -389 c-16 -2 -40 -2 -55 0 -16 2 -3 4 27 4 30 0 43 -2 28 -4z m-155
-80 c83 -34 173 -33 258 3 82 34 174 36 245 4 27 -12 67 -25 89 -28 36 -7 40
-11 43 -40 3 -28 0 -32 -22 -32 -14 0 -56 12 -93 27 -94 39 -183 38 -273 -1
-57 -25 -74 -28 -135 -23 -43 3 -89 14 -120 28 -72 34 -168 33 -257 -4 -36
-15 -78 -27 -93 -27 -24 0 -26 3 -23 32 3 29 7 33 43 40 22 3 58 14 80 24 87
38 162 37 258 -3z m-6 -170 c93 -38 183 -38 270 0 72 31 154 35 218 11 22 -9
66 -23 98 -32 54 -16 57 -18 57 -49 0 -31 -1 -32 -32 -26 -18 3 -59 16 -90 29
-82 34 -177 33 -261 -2 -46 -20 -79 -27 -127 -27 -48 0 -81 7 -127 27 -83 35
-170 36 -256 2 -34 -14 -75 -26 -92 -28 -27 -3 -30 0 -33 29 -3 30 -1 31 40
38 24 4 56 14 73 23 81 41 168 43 262 5z"/>
<path d="M0 2135 l0 -2135 12800 0 12800 0 0 2135 0 2135 -12800 0 -12800 0 0
-2135z"/>
</g>
</svg>
