<svg id="visual" viewBox="0 0 960 540" width="960" height="540" xmlns="http://www.w3.org/2000/svg" xmlns:xlink="http://www.w3.org/1999/xlink" version="1.1"><rect width="960" height="540" fill="#1f7094"></rect><g><g transform="translate(788 19)"><path d="M85.7 -27.5C97.2 7.4 83 51 51.9 74.2C20.9 97.4 -27 100.2 -55.5 78.8C-84.1 57.5 -93.5 12 -81 -24.3C-68.6 -60.6 -34.3 -87.8 1.4 -88.2C37.1 -88.7 74.3 -62.5 85.7 -27.5Z" stroke="#c97221" fill="none" stroke-width="20"></path></g><g transform="translate(387 354)"><path d="M78.7 -28.7C87.5 1.3 70 36.8 43.4 55C16.7 73.2 -19 74.3 -42.5 57.4C-66.1 40.6 -77.4 5.9 -68.3 -24.7C-59.2 -55.2 -29.6 -81.5 2.7 -82.4C35 -83.3 70 -58.7 78.7 -28.7Z" stroke="#c97221" fill="none" stroke-width="20"></path></g><g transform="translate(112 530)"><path d="M72.8 -25.1C82.9 7.4 71.7 45.3 44.7 65.9C17.7 86.6 -25.1 90 -52.2 70.6C-79.3 51.1 -90.9 8.9 -79.6 -25.2C-68.3 -59.3 -34.1 -85.3 -1.4 -84.9C31.4 -84.4 62.8 -57.5 72.8 -25.1Z" stroke="#c97221" fill="none" stroke-width="20"></path></g></g></svg>