<svg id="visual" viewBox="0 0 900 300" width="900" height="300" xmlns="http://www.w3.org/2000/svg" xmlns:xlink="http://www.w3.org/1999/xlink" version="1.1"><rect x="0" y="0" width="900" height="300" fill="#ffffff"></rect><path d="M0 54L21.5 60.7C43 67.3 86 80.7 128.8 78C171.7 75.3 214.3 56.7 257.2 58C300 59.3 343 80.7 385.8 86.5C428.7 92.3 471.3 82.7 514.2 81.8C557 81 600 89 642.8 86.2C685.7 83.3 728.3 69.7 771.2 62.7C814 55.7 857 55.3 878.5 55.2L900 55L900 0L878.5 0C857 0 814 0 771.2 0C728.3 0 685.7 0 642.8 0C600 0 557 0 514.2 0C471.3 0 428.7 0 385.8 0C343 0 300 0 257.2 0C214.3 0 171.7 0 128.8 0C86 0 43 0 21.5 0L0 0Z" fill="#0066FF" stroke-linecap="round" stroke-linejoin="miter"></path></svg>